<svg xmlns="http://www.w3.org/2000/svg" width="183" height="35" viewBox="0 0 183 35" fill="none">
  <path d="M 146.587 34.476 L 152.915 34.476 L 152.915 12.051 L 146.587 12.051 L 146.587 34.476 Z M 149.699 8.278 C 151.981 8.278 153.849 6.497 153.849 4.192 C 153.849 1.886 151.981 0 149.699 0 C 147.417 0 145.653 1.886 145.653 4.192 C 145.653 6.497 147.417 8.278 149.699 8.278 Z M 13.071 1.257 L 0 1.257 L 0 34.371 L 6.639 34.371 L 6.639 21.796 L 12.553 21.796 C 18.673 21.796 23.757 18.129 23.757 11.527 C 23.757 4.925 19.296 1.257 13.071 1.257 Z M 12.76 15.823 L 6.639 15.823 L 6.639 7.021 L 13.071 7.021 C 15.665 7.021 17.74 8.698 17.74 11.422 C 17.74 14.147 15.561 15.823 12.76 15.823 Z M 162.667 21.796 C 162.667 26.093 165.779 29.132 169.721 29.132 C 173.663 29.132 176.775 26.093 176.775 21.796 C 176.775 17.5 173.767 14.356 169.721 14.356 C 165.675 14.356 162.667 17.5 162.667 21.796 Z M 156.546 21.796 C 156.546 14.147 162.252 8.488 169.721 8.488 C 177.19 8.488 183 14.147 183 21.796 C 183 29.446 177.294 35 169.721 35 C 162.148 35 156.546 29.446 156.546 21.796 Z M 120.029 15.928 L 120.029 34.476 L 126.15 34.476 L 126.15 16.766 C 126.15 15.299 126.98 14.566 128.328 14.566 L 133.515 14.566 C 134.864 14.566 135.694 15.299 135.694 16.766 L 135.694 34.476 L 141.815 34.476 L 141.815 15.928 C 141.815 12.051 138.599 8.802 134.656 8.802 L 127.187 8.802 C 123.245 8.802 120.029 12.051 120.029 15.928 Z M 97.206 21.796 C 97.206 26.093 100.214 29.132 104.26 29.132 C 108.306 29.132 111.315 26.093 111.315 21.796 C 111.315 17.5 108.202 14.356 104.26 14.356 C 100.318 14.356 97.206 17.5 97.206 21.796 Z M 91.085 21.796 C 91.085 14.147 96.687 8.488 104.26 8.488 C 111.833 8.488 117.435 14.147 117.435 21.796 C 117.435 29.446 111.833 35 104.26 35 C 96.687 35 91.085 29.446 91.085 21.796 Z M 67.328 26.617 L 73.656 26.617 C 73.864 29.132 75.731 30.075 78.429 30.075 C 80.607 30.075 82.682 29.446 82.682 27.246 C 82.682 25.045 80.607 24.731 78.844 24.416 L 76.354 23.997 C 71.582 23.159 67.951 21.272 67.951 16.557 C 67.951 11.422 72.827 8.488 78.117 8.488 C 83.408 8.488 88.284 11.213 88.491 16.557 L 82.371 16.557 C 82.163 14.251 80.503 13.413 78.117 13.413 C 75.731 13.413 74.175 14.042 74.175 16.033 C 74.175 17.814 75.731 18.443 77.599 18.757 L 80.296 19.177 C 84.964 19.91 88.803 21.587 88.803 26.512 C 88.803 32.066 84.031 35 78.325 35 C 72.93 35 67.847 32.066 67.328 26.617 Z M 52.182 15.928 L 52.182 34.476 L 58.303 34.476 L 58.303 16.766 C 58.303 15.299 59.133 14.566 60.481 14.566 L 66.187 14.566 L 66.187 8.802 L 59.34 8.802 C 55.398 8.802 52.182 12.051 52.182 15.928 Z M 30.915 19.072 L 43.156 19.072 C 42.638 16.138 40.148 14.042 37.036 14.042 C 33.923 14.042 31.434 16.138 30.915 19.072 Z M 24.172 21.796 C 24.172 14.356 29.566 8.488 36.828 8.488 C 45.024 8.488 49.277 14.775 49.277 21.272 C 49.277 22.111 49.173 22.949 49.07 23.787 L 30.707 23.787 C 30.915 27.141 33.612 29.132 37.036 29.132 C 39.214 29.132 41.185 28.084 42.638 26.198 L 47.306 29.551 C 44.609 33.219 40.874 35 36.828 35 C 29.67 35 24.172 29.237 24.172 21.796 Z" fill="currentColor" fill-rule="nonzero"></path>
</svg>